<svg xmlns="http://www.w3.org/2000/svg" viewBox="0 0 64 64" fill="none">
  <defs>
    <linearGradient id="g" x1="0" y1="0" x2="1" y2="1">
      <stop offset="0" stop-color="#c1121f"/>
      <stop offset="1" stop-color="#228b22"/>
    </linearGradient>
  </defs>
  <g>
    <path d="M20 10c6 0 10 6 12 10 2-4 6-10 12-10 6 0 10 4 10 10 0 6-6 10-10 12 4 2 10 6 10 12s-4 10-10 10-10-6-12-10c-2 4-6 10-12 10s-10-4-10-10 6-10 10-12c-4-2-10-6-10-12 0-6 4-10 10-10z" fill="url(#g)"/>
    <path d="M32 36c1 6 0 14-2 22" stroke="#1a1a1a" stroke-opacity=".2" stroke-width="2" stroke-linecap="round"/>
  </g>
</svg>

